<svg width="21" height="22" viewBox="0 0 21 22" fill="none" xmlns="http://www.w3.org/2000/svg">
<g clip-path="url(#clip0_2_39)">
<path d="M10.54 21.957L10.0947 21.4569C10.0306 21.385 8.50928 19.6691 6.89322 17.2402C4.69972 13.9432 3.45914 11.0522 3.20615 8.64713C3.16425 8.29952 3.14386 7.98648 3.14386 7.69023C3.14386 3.42625 6.46187 -0.0429688 10.5402 -0.0429688C14.6172 -0.0429688 17.9352 3.42558 17.9365 7.68889C17.9365 7.97691 17.9165 8.28592 17.8755 8.63336C17.6281 11.0393 16.3891 13.9331 14.1927 17.2345C12.5746 19.6664 11.0495 21.385 10.9855 21.457L10.54 21.957ZM10.5402 1.22964C7.13305 1.22964 4.361 4.12802 4.361 7.6904C4.361 7.93411 4.3785 8.19663 4.41446 8.49271L4.41559 8.50345C4.87743 12.9176 9.13712 18.374 10.5403 20.0657C11.9454 18.3728 16.2146 12.9077 16.6657 8.49254L16.667 8.4818C16.7026 8.18068 16.7193 7.92874 16.7193 7.68906C16.7182 4.12752 13.9461 1.22964 10.5402 1.22964ZM10.5402 12.8918C7.79717 12.8918 5.56547 10.5584 5.56547 7.6904C5.56547 4.8224 7.79717 2.489 10.5402 2.489C13.2825 2.489 15.5136 4.8224 15.5136 7.6904C15.5136 10.5584 13.2825 12.8918 10.5402 12.8918ZM10.5402 3.76178C8.46835 3.76178 6.78277 5.52417 6.78277 7.6904C6.78277 9.85663 8.46835 11.619 10.5402 11.619C12.6113 11.619 14.2964 9.85663 14.2964 7.6904C14.2964 5.52417 12.6113 3.76178 10.5402 3.76178Z" fill="#4F4F4F"/>
</g>
<defs>
<clipPath id="clip0_2_39">
<rect width="21" height="22" fill="white"/>
</clipPath>
</defs>
</svg>
